<?xml version="1.0" encoding="UTF-8"?>
<svg id="Levy_Logo" data-name="Levy Logo" xmlns="http://www.w3.org/2000/svg" viewBox="0 0 967 862">
  <defs>
    <style>
      .cls-1 {
        fill: #cc1f36;
      }
    </style>
  </defs>
  <path class="cls-1" d="M830.79,433.21c23.65-10.92,44.8-23.35,68.06-34.6,4.72-2.34,10.39-3.12,15.73-3.77,18.89-2.32,34.31,18.33,26.33,35.65-1.37,2.97-7.34,6.88-9.33,6.03-14.57-6.27-28.21-2.55-40.37,4.55-19.7,11.49-38.43,24.66-57.32,37.49-2.11,1.43-3.36,5.19-3.68,8.03-2.71,23.53-3.33,47.44-7.91,70.58-18.8,118.63-123.37,234.37-252.03,212.68-16.01-3.12-30.41-10.12-42.32-21.45-13.68-13.02-11.67-29.17-7.08-44.84,6.31-21.52,19.46-39.16,34.01-55.98,63.63-74.24,143.28-130.14,222.42-186.21,3.11-2.31,6.48-6.55,6.7-10.08.84-13.88.62-27.84.41-41.77-.03-2.19-2.04-4.35-3.14-6.53-2.14,1.19-4.74,1.94-6.34,3.64-16.87,17.9-33.35,36.18-50.43,53.88-12.46,12.91-27.32,21.76-44.7,27.61-40.68,9.26-64.09-37.41-50.91-71.99,7.84-21.84,16.44-40.02,25.91-61.85-20.76,4.03-37.48,7.42-57.79,10.2-6.51.82-9.61,3.82-11.43,9.51-15.63,44.2-22.76,95.82-61.93,126.46-25.87,22.57-61.57,16.84-71.35-18.27-10.72-35.63-5.01-70.09-5.62-106.72-29.53,20.64-53.96,45.65-82.4,67.51-17.48,14.04-36.88,24.79-59.34,29.59-19.92,4.26-43.57-4.22-55.17-21.19-6.3-9.22-6.07-8.9-15.37-2.18-32.66,23.6-65.11,47.53-98.47,70.1-10.38,7.03-23.01,11.85-35.3,14.74-64.53,13.05-63.95-53.07-58.41-98.57,11.61-115.45,37.12-228.67,54.93-343.17.85-5.54,3.12-8.7,8.29-5.59,17.13,10.28,35.39,19.62,46.36,37.2,3.83,6.14,6.74,14.64,5.91,21.57-11.44,108.03-43.83,212.31-61.85,319.21-2.3,14.47,2.51,19.28,15.94,13.21,42.78-19.66,84.81-41.37,122.85-69.34,3.69-2.59,6.89-7.6,7.89-12.04,9.21-40.93,23.85-79.35,50.36-112.47,10.81-13.5,20.23-14.33,35.15-6.22,16.29,8.85,33.66,15.73,50.03,24.44,7.14,3.8,13.97,9.17,19.21,15.31,10.96,12.82,9.21,25.88-5.02,34.98-33.93,21.71-69.29,41.2-103.48,62.48-2.51,1.63-5.26,6.34-4.57,8.62.94,3.1,4.92,7.11,7.89,7.38,5.41.49,11.99.03,16.42-2.71,47.83-29.55,93.72-62.42,142.08-91.06,18.2-10.46,36.81-2.98,54.13,4.78,7.23,3.24,8.7,10.81,7,18.59-6.19,28.46-12.47,56.9-18.41,85.41-1.24,5.95-3.89,14.26,3.16,16.95,7.5,2.86,11.79-5.19,14.12-10.83,10.14-24.55,19.45-49.44,29.05-74.22,3.71-9.59,6.52-19.67,11.45-28.59,2.5-4.52,8.45-7.63,13.47-10.08,3.37-1.64,7.91-1.6,11.84-1.27,30.35,2.58,58.86-5.18,87.42-14.08,11.22-3.5,23.46-5.33,35.18-5.12,11.88.21,15.83,8.4,10.62,19.21-7.93,16.46-17.44,32.2-24.64,48.95-5.92,13.77-9.88,28.46-13.87,42.97-3.97,15.92,11.31,21.57,22.6,12.42,29.33-27.27,54.44-58.57,80.57-88.81,8.33-9.42,18.21-16.31,31.64-10.1,13.26,6.13,21.09,16.63,22.08,31.28,1.33,19.92,1.3,38.38,2.7,58.54ZM784.31,508.75c-.89-.36-1.77-.72-2.66-1.07-73.38,43.91-183.31,116.26-219.87,194.42-6.67,14.12-1.56,22.41,13.07,27.94,15.1,5.72,30.28,5.1,45.42.59,93.98-30.5,159.25-124.6,164.04-221.88ZM305.31,369c3.53-1.06,4.95-1.18,6.04-1.86,18.62-11.63,37.22-23.28,55.73-35.09,1.22-.78,2.72-3.36,2.3-4.12-2.71-4.88-5.06-10.64-9.28-13.72-2.38-1.75-9.28-.36-12.11,2.03-16.88,14.28-31.08,30.93-42.68,52.75Z"/>
</svg>